<?xml version="1.0" standalone="no"?>
<!DOCTYPE svg PUBLIC "-//W3C//DTD SVG 1.1//EN" "http://www.w3.org/Graphics/SVG/1.1/DTD/svg11.dtd" >
<svg xmlns="http://www.w3.org/2000/svg">
<metadata>Generated by IcoMoon</metadata>
<defs>
<font id="icomoon" horiz-adv-x="1024">
<font-face units-per-em="1024" ascent="960" descent="-64" />
<missing-glyph horiz-adv-x="1024" />
<glyph unicode="&#x20;" horiz-adv-x="512" d="" />
<glyph unicode="&#x78;" glyph-name="x" horiz-adv-x="1001" d="M281 607q-27-1-53-1h-83q-18 0-36.5-6t-32.5-18.5-23-32-9-45.5v-76h912v41q0 16-0.5 30t-0.5 18q0 13-5 29t-17 29.5-31.5 22.5-49.5 9h-133v-97h-438v97zM955 374v-52q0-23 0.5-52t0.5-58-10.5-47.5-26-30-33-16-31.5-4.5q-14-1-29.5-0.5t-29.5 0.5h-32l-45 128h-439l-44-128h-63q-20 0-45 1-25 0-41 9.5t-25.5 23-13.5 29.5-4 30v167h911zM163 311q-12 0-21-8.5t-9-21.5 9-21.5 21-8.5q13 0 22 8.5t9 21.5-9 21.5-22 8.5zM316 187q-8-26-14-48-5-19-10.5-37t-7.5-25-3-15 1-14.5 9.5-10.5 21.5-4h365q23 0 34 12t2 38q-5 13-9.5 30.5t-9.5 34.5q-5 19-11 39h-368zM336 562v228q0 11 2.5 23t10 21.5 20.5 15.5 34 6h188q31 0 51.5-14.5t20.5-52.5v-227h-327z" />
<glyph unicode="&#xe600;" glyph-name="chengjifenxi" d="M98 763h-34v-830h899v34l-864 1zM548 729q0 14-10 24t-24 10h-104q-15 0-25-10t-10-24v-692h173v692zM341 521q0 15-10.5 25t-24.5 10h-104q-14 0-24-10t-10-25v-484h173v484zM756 314q0 14-10.5 24t-24.5 10h-104q-14 0-24-10t-10-24v-277h173v277zM929 141h-104q-15 0-25-10t-10-25v-69h173v69q0 15-10 25t-24 10z" />
<glyph unicode="&#xe601;" glyph-name="fanhui" d="M738 706l-75 75-424-424v-1l420-420 74 74-345 346z" />
<glyph unicode="&#xe602;" glyph-name="shouye" horiz-adv-x="1366" d="M413 317v-334q0-16 15-24 10-6 23-6h151q8 0 14 6t6 14v160h151v-160q0-8 5.5-14t14.5-6h151q13 0 23 6 14 8 14 24v334l-284 260zM1092 409l-359 329q-15 14-35.5 14t-36.5-14l-358-329q-17-15-18-37t14-38v0q16-17 40-17 20 0 36 14l322 295 323-295q16-15 38-14t37 17 14 38-17 37z" />
<glyph unicode="&#xe603;" glyph-name="wodejine" d="M511.5 929q-97.5 0-186.5-38t-153-102.5-102-153.5-38-186.5 38-186.5 102-153 153-102 186.5-38 186.5 38 153.5 102 102.5 153 38 186.5-38 186.5-102.5 153.5-153.5 102.5-186.5 38zM511.5 20q-116.5 0-215.5 57t-156 156-57 215.5 57 215.5 156 156.5 215.5 57.5 215.5-57.5 156.5-156.5 57.5-215.5-57.5-215.5-156.5-156-215.5-57zM685 295h-143v-102q0-8-6-14t-14-6h-21q-8 0-14 6t-6 14v102h-143q-8 0-14 6t-6 15v20q0 9 6 15t14 6h143v102h-143q-8 0-14 6t-6 14v21q0 8 6 14t14 6h45l-61 104q-3 5 0 12t10 11l18 10q7 5 15 4t11-7l79-134h113l79 134q3 6 11 7t15-4l18-10q8-4 11-11t-1-12l-61-104h45q9 0 15-6t6-14v-21q0-8-6-14t-15-6h-143v-102h143q9 0 15-6t6-15v-20q0-9-6-15t-15-6v0 0z" />
<glyph unicode="&#xe604;" glyph-name="jia" d="M511.5 882q-90.5 0-173-35.5t-142-95-94.5-142-35-172.5 35-172.5 94.5-142 142-95 173-35.5 173 35.5 142 95 94.5 142 35 172.5-35 172.5-94.5 142-142 95-173 35.5zM511.5 48q-105.5 0-195.5 52t-142 141.5-52 195 52 195.5 142 142 195.5 52 195-52 142-142 52.5-195.5-52.5-195-142-141.5-195-52zM678 465h-139v139q0 11-8 19.5t-19.5 8.5-19.5-8.5-8-19.5v-139h-139q-12 0-20-8.5t-8-20 8-19.5 20-8h139v-139q0-11 8-19.5t19.5-8.5 19.5 8.5 8 19.5v139h139q12 0 20 8t8 19.5-8 20-20 8.5z" />
<glyph unicode="&#xe605;" glyph-name="cha" d="M512 876q-104 0-199-40.5t-163.5-109-109-163.5-40.5-199 40.5-199 109-163.5 163.5-109 199-40.5 199 40.5 163.5 109 109 163.5 40.5 199-40.5 199-109 163.5-163.5 109-199 40.5zM747 184l-55-55-180 192-180-192-55 55 181 194-181 194 55 55 180-192 180 192 55-55-181-194z" />
<glyph unicode="&#xe606;" glyph-name="dianhua" d="M704 236q-24-24-45-59.5t-38-52-45-16.5q-23 0-46.5 9.5t-51 31.5-45 38.5-49.5 48.5-48.5 49.5-38.5 45-31.5 51-9.5 46.5q0 28 16.5 45t52 38 59.5 45q30 30-6 93t-95 113-91 50q-28 0-76-48t-82-96l-34-48q0-95 81-256.5t175-255.5 255.5-175 256.5-81q8 5 21 14t46 34.5 58 48.5 46 50 21 45q0 32-50 91t-113 95-93 6z" />
<glyph unicode="&#xe607;" glyph-name="17wenjuandiaocha" d="M265 408q-9 0-15.5-6.5t-6.5-16 6.5-16 15.5-6.5h224q10 0 16.5 6.5t6.5 16-6.5 16-16.5 6.5h-224zM593 541h-332q-7 0-12.5-7t-5.5-16 5.5-15.5 12.5-6.5h332q7 0 12.5 6.5t5.5 15.5-5.5 16-12.5 7zM668 630q10 0 16.5 6.5t6.5 16-6.5 16-16.5 6.5h-403q-9 0-15.5-6.5t-6.5-16 6.5-16 15.5-6.5h403zM825 943h-627q-55 0-94.5-39.5t-39.5-94.5v-716q0-55 39.5-94.5t94.5-39.5h403v45h-403q-37 0-63 26t-26 63v716q0 37 26 63t63 26h627q37 0 63.5-26t26.5-63v-380h44v380q0 55-39 94.5t-95 39.5zM910 368v0q-40 35-107 35-65 0-104-35-41-36-43-85 0-13 17.5-18t35.5-1.5 19 10.5q2 13 10 28.5t18 23.5q20 17 50 17 31 0 49.5-16.5t18.5-38.5q0-17-11-31-6-8-41-36-34-28-45.5-50.5t-11.5-56.5v-19h72q-1 32 5 44.5t31 33.5q48 40 62.5 63t14.5 49q0 47-40 83zM801 57q-21 0-35.5-14.5t-14.5-35 14.5-35 35.5-14.5 35.5 14.5 14.5 35-14.5 35-35.5 14.5z" />
<glyph unicode="&#xe610;" glyph-name="yonghu" d="M920-42q0 2-2 10-14 108-80 194.5t-164 128.5q58 40 91.5 102t33.5 135q0 119-84 203t-203 84-203-84-84-203q0-73 33.5-135t91.5-102q-96-42-161.5-126t-80.5-190q-4-9-4-17v-4q0-17 12-29t29-12 29 12 12 29v0h1q15 120 104 202t211 85h20q122-3 211.5-85t103.5-202h1q0-17 12-29t29-12 29 12 12 29v4zM512 323q-85 0-145 60t-60 145 60 145 145 60 145-60 60-145-60-145-145-60z" />
<glyph unicode="&#xe618;" glyph-name="icon01" d="M1003 317h-211q-9-2-16.5 2t-9.5 13l-32 101-99-467q-3-25-16-25h-36q-8-3-15.5 1.5t-9.5 12.5l-123 610-94-441q-2-8-10.5-13.5t-16.5-3.5h-33q-9-3-17 1.5t-10 13.5l-62 195h-169q-9 0-15 6t-6 15v43q0 8 6 14.5t15 6.5h210q23 1 26-12l33-101 91 478q5 14 19 14l46 1q8 2 15.5-2.5t9.5-12.5l122-605 91 435q2 9 8.5 14t13.5 3l37 1q8 2 16-2.5t10-13.5l62-197h170q9 0 15-6.5t6-14.5v-43q0-9-6-15t-15-6v0z" />
<glyph unicode="&#xe619;" glyph-name="iconsj" d="M511 812q-91 0-173.5-35.5t-142-95-95-142-35.5-173.5 35.5-173.5 95-142 142-95 173.5-35.5 173.5 35.5 142.5 95 95 142 35 173.5-35 173.5-95 142-142.5 95-173.5 35.5v0zM734 317h-237q-7 0-14 3-22 9-22 33v237q0 15 10.5 26t26 11 26-11 10.5-26v-200h200q15 0 26-10.5t11-26-11-26-26-10.5v0z" />
<glyph unicode="&#xe61a;" glyph-name="baoming" d="M597 333l277 268-123 116-280-276-43-108 55-60zM950 726l-72.5 74.5t-6 5-9.5 5-12.5-0.5-14.5-8l-55-58 116-113 54 54q1 0 5.5 5t4.5 15-10 21zM861 507q-20 0-32.5-9.5t-14.5-19.5l-3-9v-425q0-13-9.5-22.5t-23.5-9.5h-586q-13 0-22.5 9.5t-9.5 22.5v585q0 13 9.5 22.5t22.5 9.5h420q4 2 10 5.5t16.5 16 10.5 26.5v5.5t-1.5 12-4.5 15-10.5 12-17.5 5.5h-455q-41 0-69.5-28.5t-28.5-69.5v-649q0-40 28.5-68.5t69.5-28.5h651q40 0 69 28.5t29 68.5v457q0 13-12 22.5t-24 12.5zM392 244l64 10-50 46z" />
<glyph unicode="&#xe61b;" glyph-name="tianjia1" d="M873 725q-98 98-229.5 133t-263 0-229.5-133q-74-73-112-168.5t-38-192.5 38-192.5 111.5-169 169-111.5 192.5-38 192.5 38 168.5 112q98 98 133 229.5t0 263-133 229.5zM185.5 37.5q-88.5 88.5-120 207.5t0 238 120 207.5 207.5 120 238 0 207.5-120 120-207.5 0-238-120-207.5-207.5-120-238 0-207.5 120zM548 146v182h182q16 0 26.5 10.5t10.5 25.5v0q0 16-10.5 26.5t-26.5 10.5h-182v182q0 15-10.5 26t-25.5 11v0q-15 0-26-11t-11-26v-182h-181q-16 0-26.5-10.5t-10.5-26.5v0q0-15 10.5-25.5t26.5-10.5h181v-182q0-15 11-26t26-11v0q15 0 25.5 11t10.5 26z" />
<glyph unicode="&#xe61c;" glyph-name="wxbgongju" d="M944 242l-323 266q26 56 26 118 0 117-83 200.5t-200 83.5q-43 0-82-12l-31-10 175-175q12-12 12-28t-12-28l-93-93q-11-11-27.5-11t-27.5 11l-176 175-9-30q-12-40-12-83 0-117 83-200t200-83q62 0 119 26l140-172q1-5 4-8t7-5l114-140q22-26 55-26 31 0 53 22l93 93q23 23 21.5 55t-26.5 54zM921 161l-93-93q-11-11-26-10.5t-25 11.5l-54 66 65 52q6 5 7 13t-4 14.5-13 7-14-4.5l-65-52-28 35 58 46q6 6 7 13.5t-4 14-13 7.5-14-4l-59-47-153 188-14-8q-54-28-115-28-101 0-173 71.5t-72 172.5q0 20 3 39l128-128q22-22 55-22t56 22l93 93q22 23 22 55.5t-22 54.5l-128 128q19 3 38 3 101 0 173-71.5t72-173.5q0-61-29-114l-7-14 346-286q12-10 13-25t-11-26v0z" />
<glyph unicode="&#xe620;" glyph-name="xiangyou" d="M353 781q-7 6-16.5 6t-16-6.5-6.5-16 7-15.5l366-369-366-367q-7-6-7-15.5t6.5-16 16-6.5 16.5 6l399 399z" />
<glyph unicode="&#xe624;" glyph-name="zhifubaozhifu" d="M512-64q139 0 257 68.5t186.5 186.5 68.5 257-68.5 257-186.5 186.5-257 68.5-257-68.5-186.5-186.5-68.5-257 68.5-257 186.5-186.5 257-68.5zM462 637v84h93v-84h189v-36l-189-2v-52l156-1q-3-29-22-83-9-23-19-43t-15-29l-5-8 304-99q-11-29-24-54l-32-52-290 138q-6-7-16.5-18t-40-34.5-54.5-35.5q-100-48-189-26-56 13-86.5 48.5t-24.5 94.5q4 38 32 64t62.5 36 74.5 10q32 0 84-11.5t89-23.5l36-12q12 26 23 55 5 14 8.5 27t4.5 20l1 7h-292v29h142v56l-177-1v36h177zM540 350q-4-4-10-11t-27-25-42-31.5-51.5-24.5-58.5-11q-69 0-96.5 25t-27.5 59q0 72 108 79 39 2 90-13t83-31z" />
<glyph unicode="&#xe629;" glyph-name="jian" d="M678 342h-334q-9 0-16 6.5t-7 16 7 16.5 16 7h334q10 0 16.5-7t6.5-16.5-6.5-16-16.5-6.5zM511-83q-91 0-174 35.5t-143 95.5-95.5 143-35.5 174 35.5 174 95.5 143 143 95.5 174 35.5 174-35.5 143-95.5 96-143 36-174-36-174-96-143-143-95.5-174-35.5zM511 767q-109 0-201.5-54t-146.5-146.5-54-201.5 54-201.5 146.5-146.5 201.5-54 202 54 146.5 146.5 53.5 201.5-53.5 201.5-146.5 146.5-202 54z" />
<glyph unicode="&#xe62c;" glyph-name="chenggong" d="M513.5 799q-90.5 0-173.5-35t-142.5-95-95-142.5-35.5-173.5 35.5-173.5 95-142.5 142.5-95 173.5-35 173 35 142.5 95 95.5 142.5 35.5 173.5-35.5 173.5-95.5 142.5-142.5 95-173 35zM463 155l-34-34-203 203 68 68 135-135 304 304 68-68z" />
<glyph unicode="&#xe630;" glyph-name="wujiaoxing" d="M722 344q13-59 24-112 5-23 8-42 4-17 8-38l6-30q2-13 3-15 2-15-7.5-20.5t-20.5-5.5q-4 0-11 3l-12 4-204 119q-55-32-101-58-19-11-39-22-17-10-34-21-16-9-27-15-12-7-16-8-7-4-15.5-2.5t-15 6-9.5 11-2 13.5q1 4 4 15t7 29 9 37q6 24 11 42 4 20 26 109-49 43-83 71-11 10-31 27-15 13-27 23.5t-20 16.5q-8 7-8 8-10 8-16 19-7 10-5.5 21t8.5 17.5 16 7.5l241 22 90 210q5 12 13.5 21t23.5 9q8 0 13.5-3.5t9.5-7.5q4-5 7-10t4-8l88-209 242-23q15-4 21.5-9.5t6.5-17.5q0-10-7-19-6-7-17-20z" />
<glyph unicode="&#xe632;" glyph-name="shouyizhuanhua" d="M512 960q-164 0-298-95.5t-187-250.5l70-24q45 133 159.5 215t255.5 82q162 0 284.5-105t148.5-262l-63 42-41-61 126-83q9-7 20-7 10 0 18 5 19 10 19 32 0 104-40.5 199t-109 163.5-163.5 109-199 40.5zM512 9q-162 0-284.5 105t-148.5 262l63-42 41 61-126 83q-18 13-37.5 2.5t-19.5-32.5q0-104 40.5-199t109-163.5 163.5-109 199-40.5q164 0 298 95.5t187 250.5l-70 24q-45-133-159.5-215t-255.5-82zM702 689l-51 52-139-139-139 139-51-52 153-154v-14h-146v-73h146v-73h-146v-73h146v-110h74v110h146v73h-146v73h146v73h-146v14z" />
<glyph unicode="&#xe633;" glyph-name="jibenxinxi" d="M967 171h-319q-19 0-29.5 10.5t-10.5 28.5 10.5 28.5 29.5 10.5h316q18 0 28.5-10.5t10.5-28.5q2-17-9-28t-27-11zM967 331h-319q-19 0-29.5 10.5t-10.5 28.5 10.5 28.5 29.5 10.5h316q18 0 28.5-10.5t10.5-28.5-10-28.5-26-10.5zM807 526q0 131-92.5 224t-223.5 93-223.5-93-92.5-224q0-86 44.5-160.5t117.5-116.5l20-10t19-11q10-9 10-23t-10-25q-12-12-54-12-85-2-147-58.5t-76-140.5h-81q11 92 69 161.5t142 94.5q-136 121-136 298 0 110 53.5 202t145 145.5 199.5 53.5 199-53 143-144 52-198q0-21-19.5-32.5t-39-3.5-19.5 33zM648 93h316q18 0 28.5-10.5t10.5-29-10.5-29-28.5-10.5h-316q-19 0-29.5 10.5t-10.5 28.5q0 16 12.5 28t27.5 12z" />
<glyph unicode="&#xe637;" glyph-name="weizhi" d="M512 959q-106 0-196-50.5t-142-138-52-191.5q0-58 39.5-146t96.5-171.5 114.5-158.5 97.5-121 42-46q4 1 44 47t97.5 121 113.5 158 95.5 171 39.5 146q0 104-52 191.5t-142 138-196 50.5zM512 375q-75 0-127.5 51t-52.5 124 52.5 124.5 127.5 51.5 127.5-51.5 52.5-124.5-52.5-124-127.5-51z" />
<glyph unicode="&#xe63f;" glyph-name="rili" d="M768 690h-70v23q0 10-6.5 16.5t-16.5 6.5-16.5-6.5-6.5-16.5v-23h-280v23q0 10-6.5 16.5t-16.5 6.5-16.5-6.5-6.5-16.5v-23h-70q-48 0-82-34t-34-83v-372q0-48 34-82t82-34h512q48 0 82 34t34 82v372q0 49-34 83t-82 34zM838 201q0-29-20.5-49.5t-49.5-20.5h-512q-29 0-49.5 20.5t-20.5 49.5v372q0 29 20.5 49.5t49.5 20.5h70v-46q0-10 6.5-17t16.5-7 16.5 7 6.5 17v46h280v-46q0-10 6.5-17t16.5-7 16.5 7 6.5 17v46h70q29 0 49.5-20.5t20.5-49.5v-372zM361 504h-70q-10 0-16.5-7t-6.5-16.5 6.5-16.5 16.5-7h70q9 0 16 7t7 16.5-7 16.5-16 7zM547 504h-70q-10 0-16.5-7t-6.5-16.5 6.5-16.5 16.5-7h70q10 0 16.5 7t6.5 16.5-6.5 16.5-16.5 7zM733 504h-70q-9 0-16-7t-7-16.5 7-16.5 16-7h70q10 0 16.5 7t6.5 16.5-6.5 16.5-16.5 7zM361 411h-70q-10 0-16.5-7t-6.5-16.5 6.5-16.5 16.5-7h70q9 0 16 7t7 16.5-7 16.5-16 7zM547 411h-70q-10 0-16.5-7t-6.5-16.5 6.5-16.5 16.5-7h70q10 0 16.5 7t6.5 16.5-6.5 16.5-16.5 7zM733 411h-70q-9 0-16-7t-7-16.5 7-16.5 16-7h70q10 0 16.5 7t6.5 16.5-6.5 16.5-16.5 7zM361 317h-70q-10 0-16.5-6.5t-6.5-16 6.5-16.5 16.5-7h70q9 0 16 7t7 16.5-7 16-16 6.5zM547 317h-70q-10 0-16.5-6.5t-6.5-16 6.5-16.5 16.5-7h70q10 0 16.5 7t6.5 16.5-6.5 16-16.5 6.5zM733 317h-70q-9 0-16-6.5t-7-16 7-16.5 16-7h70q10 0 16.5 7t6.5 16.5-6.5 16-16.5 6.5z" />
<glyph unicode="&#xe644;" glyph-name="back-top" d="M951 857h-878q-27 0-46.5-19.5t-19.5-46.5v-878q0-27 19.5-46.5t46.5-19.5h878q27 0 46.5 19.5t19.5 46.5v878q0 27-19.5 46.5t-46.5 19.5zM638 270v-231h-253l1 230h-164l290 281 295-278zM825 572h-626v93h626v-93z" />
<glyph unicode="&#xe64c;" glyph-name="weixinzhifu" d="M561 417q-10 0-17.5-7.5t-7.5-17.5q0-9 7.5-16.5t17.5-7.5q11 0 18.5 7t7.5 17-7 17.5-19 7.5zM310.5 614q-12.5 0-22-8.5t-10.5-20.5q0-13 8.5-22t20.5-9q14-1 24 7.5t10 21.5-9 22-21.5 9zM503.5 552q12.5 0 21.5 9t9 22q1 12-8 21.5t-23 9.5q-12 0-21-9.5t-9-21.5q0-13 9-22t21.5-9zM719 419q-11 0-18-7t-8-17q0-10 7-18t19-8q10 0 17 7t8 17q0 11-7 18.5t-18 7.5zM512 960q-212 0-362-150t-150-362 150-362 362-150 362 150 150 362-150 362-362 150zM340 317q-19 0-26-6-11-6-35-21t-38-23q1 4 5.5 26.5t7.5 33.5q5 20-10 31-62 43-86 105t-4 128q33 116 162 157 80 27 163 3t132-90q38-48 43-107-107-6-174-70-73-72-65-176-59 7-75 9zM816 204q-17-15-21-27t5-31q6-5 6-15-6 2-20 9.5t-23.5 11-18.5 4.5q-11 1-33.5-5t-31.5-7q-102-10-176 58-70 66-61.5 152t89.5 138q71 48 162.5 34.5t142.5-80.5q45-57 40-125.5t-60-116.5z" />
<glyph unicode="&#xe650;" glyph-name="piao" d="M853 12h-683q-44 0-75 31.5t-31 76.5v25h69v30h-69v128h69v30h-69v127h69v30h-69v128h69v30h-69v25q0 45 31 76.5t75 31.5h683q44 0 75-31.5t31-76.5v-25h-69v-30h69v-128h-69v-30h69v-127h-69v-30h69v-128h-69v-30h69v-25q0-45-31-76.5t-75-31.5zM107 104q5-22 22.5-36.5t40.5-14.5h683q23 0 40.5 14.5t23.5 36.5h-68v112h69v46h-69v112h69v45h-69v112h69v46h-69v111h68q-6 23-23.5 37.5t-40.5 14.5h-683q-23 0-40.5-14.5t-22.5-37.5h67v-111h-69v-46h69v-112h-69v-45h69v-112h-69v-46h69v-112h-67zM278 339q22-2 50-2h351q29 0 66 2v-33q-38 2-66 2h-147v-92q0-26-21-36t-53-14q-4 24-18 46 30-2 41 0t11 16v80h-164q-28 0-50-2v33zM335 241q29 15 57 47 14-16 36-32-14-6-42-26-29-21-68-44-10 18-32 32 19 7 49 23zM320 443q2 31 2 56 0 28-2 58h116v38h-72q-48 0-72-2v34q29-2 76-2h277q37 0 82 2v-34q-46 2-82 2h-69v-38h121q-2-29-2-58 0-26 2-56h-377zM622 405q34 0 67 2v-34q-36 2-65 2h-232q-32 0-64-2v34q31-2 66-2h228zM436 475v48h-76v-48h76zM538 557v38h-66v-38h66zM538 475v48h-66v-48h66zM657 475v48h-81v-48h81zM731 222q-18-16-28-36-34 26-109 62 15 14 24 34 81-42 113-60z" />
<glyph unicode="&#xe663;" glyph-name="fenxiang" d="M865 349q-14 0-24-10t-10-24v-297q0-4-3.5-7.5t-7.5-3.5h-675q-5 0-8.5 3.5t-3.5 7.5v671q0 5 3.5 8.5t8.5 3.5h409q14 0 24 10t10 24-10 24-24 10h-409q-33 0-56-23.5t-23-56.5v-671q0-32 23-55.5t56-23.5h675q32 0 55.5 23.5t23.5 55.5v297q0 14-10 24t-24 10zM957 612l-171 169q-10 10-24.5 10t-24-10-9.5-24 10-24l114-113q-81-3-152-26.5t-119-56-88-76-62-80-39-75-21.5-53-6.5-22.5q-3-13 4.5-25t21.5-15q4-1 7-1 12 0 21.5 7.5t11.5 18.5q3 9 7 23t18.5 47.5 33.5 64 53.5 67.5 76 64.5 103 47.5 131.5 23l-122-129q-10-10-9.5-24t10.5-24q10-9 23-9 15 0 25 11l178 186q10 10 9.5 24t-10.5 24z" />
<glyph unicode="&#xe68b;" glyph-name="lingdang" d="M790 569q0 53-16.5 94.5t-40 66.5-57 43.5-60.5 26-57 11.5q8 13 8 29 0 23-16.5 39t-39.5 16-39.5-16-16.5-39q0-15 8-28-30-5-57-12.5t-60.5-25.5-57.5-43-40.5-67-16.5-95q0-43-1.5-79t-6.5-80.5-15.5-78-25.5-63-39.5-45.5-55.5-16l16-45q20-7 47 0h160q13-74 67-118.5t134-44.5 134 44.5 67 118.5h159q12-3 23.5-3t17.5 1l6 2 16 45q-34 0-60.5 22.5t-42 57.5-25 84.5-13 96.5-3.5 101v0zM283 570q0 36 10.5 66.5t26.5 50 39 35 44 23.5 44.5 13.5 37 7 25.5 2.5v0q5 0 13.5-0.5t32-4.5 45-10.5 48-21.5 45.5-35 32-53 13-73q0-260 69-359h-595q70 99 70 359v0zM511 48q-62 0-100 31t-49 83h296q-12-52-50-83t-97-31v0z" />
<glyph unicode="&#xe6c9;" glyph-name="goumai" d="M237 676l132-376-28 20h549q12 0 20.5-8.5t8.5-21-8.5-21-20.5-8.5h-549q-20 0-27 20l-205 584 28-19h-59q-13 0-21.5 8.5t-8.5 20.5 8.5 20.5 21.5 8.5h59q20 0 27-20l53-150h711q14 0 22.5-11t5.5-24l-46-228q-5-20-26-23l-431-48q-12-1-21.5 6.5t-11 19.5 6 21.5 19.5 10.5l411 47q21 97 36 170 0 1-80 1h-576zM407.5 142q17.5 0 30-12.5t12.5-30-12.5-30-30-12.5-30 12.5-12.5 30 12.5 30 30 12.5zM407 197q-40 0-69-28.5t-29-69 29-69.5 69.5-29 69.5 29 29 69.5-29 69-70 28.5v0zM816.5 142q17.5 0 30-12.5t12.5-30-12.5-30-30-12.5-30 12.5-12.5 30 12.5 30 30 12.5zM816 197q-40 0-69-28.5t-29-69 29-69.5 69.5-29 69.5 29 29 69.5-29 69-70 28.5v0z" />
<glyph unicode="&#xe6d3;" glyph-name="shibai" d="M512 900q-92 0-176-35.5t-144.5-96-96-144.5-35.5-176 35.5-176 96-144.5 144.5-96 176-35.5 176 35.5 144.5 96 96 144.5 35.5 176-35.5 176-96 144.5-144.5 96-176 35.5zM679 335q8-9 8-20.5t-8-19.5l-14-14q-8-8-19.5-8t-20.5 8l-113 114-113-114q-9-8-20.5-8t-19.5 8l-14 14q-8 8-8 19.5t8 20.5l114 113-114 113q-8 9-8 20.5t8 19.5l14 14q8 8 19.5 8t20.5-8l113-114 113 114q9 8 20.5 8t19.5-8l14-14q8-8 8-19.5t-8-20.5l-114-113z" />
<glyph unicode="&#xe6eb;" glyph-name="wenjuandiaocha" d="M878 485v-403h-768v732h585v73h-622q-15 0-25.5-11t-10.5-26v-804q0-15 10.5-26t25.5-11h841q15 0 26 11t11 26v439h-73zM1024 899q0 10-7 17t-17 7q-9 0-16-6l-472-530-183 182-127-124h52l258-241 509 684q3 6 3 11z" />
<glyph unicode="&#xe710;" glyph-name="yinlianzhifu" d="M202 767h254q27 0 41.5-19t8.5-45l-119-510q-6-26-29.5-45t-49.5-19h-255q-27 0-41.5 19t-8.5 45l119 510q6 26 29.5 45t50.5 19zM435 767h293q7 0 12-1.5t7-5 3-7.5-0.5-10.5-2.5-11.5-3.5-14-4.5-14l-118-510q-2-6-4.5-19.5t-4-19-5.5-13-10.5-10-17.5-2.5h-293q-26 0-40.5 19t-8.5 45l119 510q6 26 29 45t50 19zM716 767h255q27 0 41.5-19t8.5-45l-119-510q-6-26-29.5-45t-50.5-19h-254q-27 0-41.5 19t-8.5 45l119 510q6 26 29.5 45t49.5 19zM674 306h24l7 23h-24zM693 369l-8-27q9 5 14 6l12 2 6 19h-24zM705 409l-8-27q9 4 14 6l12 2 6 19h-24zM758 409l-31-103h8l-6-21h-8l-2-7h-30l2 7h-60l6 19h6l32 105 6 21h30l-3-11q8 6 16 8l51 3-6-21h-11zM771 430h33v-12q0-3 5-3h7l-6-20h-18q-21-2-20 12zM776 336h-31l5 17h35l5 16h-34l6 20h96l-6-20h-32l-5-16h32l-5-17h-35l-7-8h15l3-22q1-4 1-5 1-1 8-1h4l-7-21h-18q-1 0-8 3-5 3-6 8l-3 22-16-22q-9-12-24-12h-22l6 19h9q2 0 6 2 3 1 5 4zM440 384h81l-6-19h-32l-5-17h33l-6-20h-33l-9-27q-1-3 12-3l16 2-7-22h-37q-3 0-8 1-4 1-6 4-4 5-2 9l10 36h-18l6 20h19l4 17h-18zM495 419h33l-6-20h-46l-5-5q-1-1-2.5-1.5t-2.5-0.5q-8-4-15-4h-15l6 19h4q6 0 8 1 2 2 5 7l8 15h33zM558 385q10 9 25 11l26 1 3 11h-47zM602 377h-46l-3-9h46zM542 430h29l-5-15q9 7 16 10l20 4 46 1-16-52q-3-12-7-18-3-4-8-7-6-3-11-3-4-1-14-1h-44l-13-41q-1-6-1-7 2-2 5-2l19 2-6-23h-38q-7 1-9 2-5 5-5 7 0 3 2 11zM625 346l-3-13q-2-7-5-9-6-6-15-6h-16v-15q0-2 2-4 1-1 2-1h5l15 1-7-21h-17q-20 0-24 3-3 2-3 8l1 55h28l-1-11h7q3 0 4.5 1t2.5 3l2 9h22zM232 605q-1-2-5.5-24t-9-42-4.5-21q-7-28-16-35-8-7-19-7-18 0-19 17l-1 4 4 22q19 74 22 84v1q-42 0-43 1l-1-6-19-84-2-7-3-23q0-10 4-17 10-18 48-18 28 0 46 11 20 12 29 46l2 9q20 77 23 87v1q-32 0-36 1zM337 451q-16 1-32 0v1l1.5 6.5t2.5 10.5l1 8q6 23 6 30 0 2 0.5 4t-1.5 3.5-5 1.5-10-3q-1-5-7-33-2-12-5-28l-2-1q-16 1-33 0v1q60 233 70 495l-53-411 1 1q19 3 35 6l1-2-2-9q6 4 8 5 9 5 20 5 14 0 18-10 3-8-3-34l-2-9q-4-21-7-37zM389 469h-17q-4 0-17-1v1h-1q2 7 4 13 2 5 4 13 3 15 5 23 0 4 2 16h1v1q15 2 18 3 5 0 18 3v-2q-37-141-43-301l35 265q-2-5-3-10l-1.5-7.5t-0.5-3.5q0-2-1-5.5t-1-6.5l-1-1h-1zM471 514q-3-15-7-21-5-6-10-6-7 0-8 10 0 5 3 14 6 27 17 27 11 1 5-24zM505 513q5 23-4 34-9 12-31 12-24 0-38-14-12-11-17-33-8-33 14-42 8-3 21-3 25 0 40 16 10 10 15 30zM838 558q-16-3-36-6l-1-1v-1.5t-1-2.5q-4 7-11 10-6 2-16.5-1.5t-19.5-12.5q-13-11-18-33-7-33 14-41 9-4 18-3 8 0 17 7l-1-5 1-1q15 1 34 0l1 1q5 27 10 52 3 13 9 36v2zM787 492q-4-6-13-6-7 0-7 9 0 5 2 15 3 13 7 20t11 7q10 0 9-17-1-1-2-8-1-3-3-13-2-5-4-7zM592 451q-16 1-32 0l-1 1q1 3 2.5 9t1.5 8l2 8q5 23 6 30v4t-1.5 3.5-4.5 1.5-10-3q-1-3-7-33-2-8-6-28l-1-1q-16 1-33 0v1q95 372 110 792-37-284-74-560l-20-149 2 2q19 3 34 6l2-2-3-9q5 3 8 5 10 5 21 5 14 0 18-10 3-8-3-34l-2-9q-5-21-7-37zM703 605h-11q-36-1-43 0l-1-6-10-46-25-102h38q1 1 2.5 9.5t3 15.5l1.5 7 5 20 3 3h2q45 0 63 14 19 14 25 40 2 7 2 13 0 11-5 18-10 13-50 14zM717 557q-4-16-17-23-8-4-25-4h-6l1 2q0 3 1.5 8t3.5 15 3.5 16.5l1.5 6.5 1 2v2h4l22-2q14-5 10-23zM404 530q6 4 6.5 9.5t-4.5 8.5q-13 8-28-3-7-4-7.5-9.5t4.5-8.5q13-8 29 3zM944 558l-1 1q-18-3-33-5l-1-1v-1q-6-13-11-21.5t-9-17.5v6l-2 39-1 1q-25-4-33-5l-1-1v-2q1-8 3-23 1-4 2-11.5t1-11.5q3-22 5-38-4-6-11-18t-12-20v0l-7-12q-1-1-3-2h-8l-6-20h20q16 0 23 13l12 21 1 2 72 127z" />
<glyph unicode="&#xe720;" glyph-name="tianjia" d="M1006 503h-439v439h-110v-439h-439v-110h439v-439h110v439h439v110z" />
<glyph unicode="&#xe736;" glyph-name="you1" d="M512-9q-93 0-178 36-82 34-145.5 97.5t-97.5 145.5q-36 85-36 178t36 178q34 82 97.5 145.5t145.5 97.5q85 36 178 36t178-36q82-34 145.5-97.5t97.5-145.5q36-85 36-178t-36-178q-34-82-97.5-145.5t-145.5-97.5q-85-36-178-36zM512 888q-89 0-170.5-35t-140.5-94-94-140.5-35-170.5 35-170.5 94-140.5 140.5-94 170.5-35 170.5 35 140.5 94 94 140.5 35 170.5-35 170.5-94 140.5-140.5 94-170.5 35zM407.5 647.5q-10.5-10.5-0.5-20.5l179-178-179-179q-11-11-0.5-21.5t21.5 0.5l189 189q11 11 0 21l-189 189q-10 10-20.5-0.5z" />
<glyph unicode="&#xe768;" glyph-name="artboard17" d="M931 484q0 12-8.5 20t-19.5 8h-43q-13 0-25.5 9.5t-16.5 21.5l-22 54q-6 12-4 27t12 24l30 31q8 8 8 19.5t-8 19.5l-52 52q-8 8-19.5 8t-19.5-8l-31-30q-9-10-24-12t-27 4l-54 22q-12 4-21.5 16.5t-9.5 25.5v43q0 11-8 19.5t-20 8.5h-72q-12 0-20-8.5t-8-19.5v-43q0-13-9.5-25.5t-21.5-16.5l-54-22q-12-6-27-4t-24 12l-31 30q-8 8-19.5 8t-19.5-8l-52-52q-8-8-8-19.5t8-19.5l30-31q10-9 12-24t-4-27l-22-54q-4-12-16.5-21.5t-25.5-9.5h-43q-11 0-19.5-8t-8.5-20v-72q0-12 8.5-20t19.5-8h43q13-1 25.5-10t16.5-21l22-54q6-12 4-27t-12-24l-30-31q-8-8-8-19.5t8-19.5l52-52q8-8 19.5-8t19.5 8l31 30q9 10 24 12t27-4l54-22q13-4 22-16.5t9-25.5v-43q0-11 8-19.5t20-8.5h72q12 0 20 8.5t8 19.5v43q0 13 9.5 25.5t21.5 16.5l54 22q12 6 27 4t24-12l31-30q8-8 19.5-8t19.5 8l52 52q8 8 8 19.5t-8 19.5l-30 31q-10 9-12 24t4 27l22 54q4 12 16.5 21t25.5 9h43q11 0 19.5 8.5t8.5 20.5v72zM673 448q0-67-47-114t-114-47-114 47-47 114 47 114 114 47 114-47 47-114v0z" />
<glyph unicode="&#xe900;" glyph-name="mima" d="M880-64h-736c-29.248 0-64 31.104-64 64v544c0 23.68 32.032 64 64 64 15.328 0 64 0 64 0v96c0 149.44 128.768 254.528 288 256 156.608-1.472 288-104.096 288-256v-64h-64v64c0 124.64-94.432 191.296-224 192-132.608-0.768-224-69.408-224-192v-96h512c0 0 76.576 0 96 0 35.072 0 64-28.384 64-64v-544c0-31.68-34.752-64-64-64zM880 544h-736v-544h736v544zM528 480c88.352 0 160-71.648 160-160 0-77.408-54.976-141.952-128-156.768v-99.232c0-17.664-14.336-32-32-32s-32 14.336-32 32v99.232c-73.024 14.816-128 79.36-128 156.768 0 88.352 71.648 160 160 160zM528 224c53.024 0 96 42.976 96 96s-42.976 96-96 96c-53.024 0-96-42.976-96-96s42.976-96 96-96z" />
<glyph unicode="&#xe901;" glyph-name="search" d="M691.881 710.090c-122.036 122.092-319.94 122.092-442.033 0s-122.093-319.997 0-442.033c56.558-56.574 134.7-91.567 221.017-91.567 86.316 0 164.458 34.994 221.016 91.567 56.575 56.558 91.568 134.701 91.568 221.017s-34.994 164.458-91.567 221.016zM181.8 200.008c-74.010 73.991-119.787 176.22-119.787 289.14 0 225.802 183.050 408.852 408.852 408.852s408.852-183.050 408.852-408.852c0-112.92-45.778-215.149-119.787-289.139-73.985-73.966-176.183-119.713-289.065-119.713s-215.080 45.747-289.065 119.713zM945.517 14.421c-10.099-10.115-24.058-16.372-39.48-16.372s-29.381 6.257-39.479 16.371l-78.903 78.959c-10.097 10.097-16.342 24.045-16.342 39.452 0 30.814 24.98 55.792 55.792 55.792 15.406 0 29.355-6.245 39.452-16.341l78.958-78.903c10.142-10.087 16.418-24.050 16.418-39.479s-6.277-29.393-16.416-39.477z" />
<glyph unicode="&#xe902;" glyph-name="bin" d="M829.047 784.055h-103.709v50.799c0 33.413-28.869 60.502-64.474 60.502h-281.536c-35.611 0-64.474-27.089-64.474-60.502v-50.799h-121.376c-35.637 0-64.525-27.090-64.525-60.503v-49.409h764.62v49.409c0 33.413-28.888 60.503-64.525 60.503v0zM666.771 782.656h-293.895v55.459h293.895v-55.459zM192.14 614.617v-596.809c0-9.612 7.793-17.404 17.405-17.404h605.263c9.612 0 17.405 7.792 17.405 17.404v596.809h-640.073zM364.284 114.483h-58.028v393.086h58.028v-393.086zM481.412 114.483h-58.028v393.086h58.028v-393.086zM598.986 114.483h-58.023v393.086h58.023v-393.086zM716.114 114.483h-58.023v393.086h58.023v-393.086z" />
</font>
</defs>
</svg>
